HIERARCHY
ROOT Hips
{
	OFFSET 0.000000 0.000000 0.000000
	CHANNELS 6 Xposition Yposition Zposition Zrotation Yrotation Xrotation 
	JOINT LHipJoint
	{
		OFFSET 0.000000 0.000000 0.000000
		CHANNELS 3 Zrotation Yrotation Xrotation
		JOINT LeftUpLeg
		{
			OFFSET 1.363060 -1.794630 0.839290
			CHANNELS 3 Zrotation Yrotation Xrotation
			JOINT LeftLeg
			{
				OFFSET 2.448110 -6.726130 0.000000
				CHANNELS 3 Zrotation Yrotation Xrotation
				JOINT LeftFoot
				{
					OFFSET 2.562200 -7.039590 0.000000
					CHANNELS 3 Zrotation Yrotation Xrotation
					JOINT LeftToeBase
					{
						OFFSET 0.157640 -0.433110 2.322550
						CHANNELS 3 Zrotation Yrotation Xrotation
						End Site
						{
							OFFSET 0.000000 0.000000 0.000000
						}
					}
				}
			}
		}
	}
	JOINT RHipJoint
	{
		OFFSET 0.000000 0.000000 0.000000
		CHANNELS 3 Zrotation Yrotation Xrotation
		JOINT RightUpLeg
		{
			OFFSET -1.305520 -1.794630 0.839290
			CHANNELS 3 Zrotation Yrotation Xrotation
			JOINT RightLeg
			{
				OFFSET -2.542530 -6.985550 0.000000
				CHANNELS 3 Zrotation Yrotation Xrotation
				JOINT RightFoot
				{
					OFFSET -2.568260 -7.056230 0.000000
					CHANNELS 3 Zrotation Yrotation Xrotation
					JOINT RightToeBase
					{
						OFFSET -0.164730 -0.452590 2.363150
						CHANNELS 3 Zrotation Yrotation Xrotation
						End Site
						{
							OFFSET 0.000000 0.000000 0.000000
						}
					}
				}
			}
		}
	}
	JOINT LowerBack
	{
		OFFSET 0.000000 0.000000 0.000000
		CHANNELS 3 Zrotation Yrotation Xrotation
		JOINT Spine
		{
			OFFSET 0.028270 2.035590 -0.193380
			CHANNELS 3 Zrotation Yrotation Xrotation
			JOINT Spine1
			{
				OFFSET 0.056720 2.048850 -0.042750
				CHANNELS 3 Zrotation Yrotation Xrotation
				JOINT Neck
				{
					OFFSET 0.000000 0.000000 0.000000
					CHANNELS 3 Zrotation Yrotation Xrotation
					JOINT Neck1
					{
						OFFSET -0.054170 1.746240 0.172020
						CHANNELS 3 Zrotation Yrotation Xrotation
						JOINT Head
						{
							OFFSET 0.104070 1.761360 -0.123970
							CHANNELS 3 Zrotation Yrotation Xrotation
							End Site
							{
								OFFSET 0.000000 0.000000 0.000000
							}
						}
					}
				}
				JOINT LeftShoulder
				{
					OFFSET 0.000000 0.000000 0.000000
					CHANNELS 3 Zrotation Yrotation Xrotation
					JOINT LeftArm
					{
						OFFSET 3.362410 1.200890 -0.311210
						CHANNELS 3 Zrotation Yrotation Xrotation
						JOINT LeftForeArm
						{
							OFFSET 4.983000 -0.000000 -0.000000
							CHANNELS 3 Zrotation Yrotation Xrotation
							JOINT LeftHand
							{
								OFFSET 3.483560 -0.000000 -0.000000
								CHANNELS 3 Zrotation Yrotation Xrotation
								JOINT LeftFingerBase
								{
									OFFSET 0.000000 0.000000 0.000000
									CHANNELS 3 Zrotation Yrotation Xrotation
									JOINT LeftHandIndex1
									{
										OFFSET 0.715260 -0.000000 -0.000000
										CHANNELS 3 Zrotation Yrotation Xrotation
										End Site
										{
											OFFSET 0.000000 0.000000 0.000000
										}
									}
								}
								JOINT LThumb
								{
									OFFSET 0.000000 0.000000 0.000000
									CHANNELS 3 Zrotation Yrotation Xrotation
									End Site
									{
										OFFSET 0.000000 0.000000 0.000000
									}
								}
							}
						}
					}
				}
				JOINT RightShoulder
				{
					OFFSET 0.000000 0.000000 0.000000
					CHANNELS 3 Zrotation Yrotation Xrotation
					JOINT RightArm
					{
						OFFSET -3.136600 1.374050 -0.404650
						CHANNELS 3 Zrotation Yrotation Xrotation
						JOINT RightForeArm
						{
							OFFSET -5.241900 -0.000000 -0.000000
							CHANNELS 3 Zrotation Yrotation Xrotation
							JOINT RightHand
							{
								OFFSET -3.444170 -0.000000 -0.000000
								CHANNELS 3 Zrotation Yrotation Xrotation
								JOINT RightFingerBase
								{
									OFFSET 0.000000 0.000000 0.000000
									CHANNELS 3 Zrotation Yrotation Xrotation
									JOINT RightHandIndex1
									{
										OFFSET -0.622530 -0.000000 -0.000000
										CHANNELS 3 Zrotation Yrotation Xrotation
										End Site
										{
											OFFSET 0.000000 0.000000 0.000000
										}
									}
								}
								JOINT RThumb
								{
									OFFSET 0.000000 0.000000 0.000000
									CHANNELS 3 Zrotation Yrotation Xrotation
									End Site
									{
										OFFSET 0.000000 0.000000 0.000000
									}
								}
							}
						}
					}
				}
			}
		}
	}
}
MOTION
Frames: 5
Frame Time: 0.008333
0.071720 18.382099 8.794858 -7.870547 0.216968 13.771104 5.761018 4.038021 -2.276924 -15.588016 -36.743517 11.171492 -3.414097 -1.225161 -0.875963 -13.083192 40.747629 -20.042009 0.029100 1.102000 3.029500 -2.056991 -4.174016 -1.114899 23.536931 24.856733 -0.357721 3.393933 -1.596456 5.422544 7.295119 -23.553428 -3.887479 -0.000400 -0.136500 0.375200 3.854582 2.219840 9.213829 5.839113 4.939094 -31.948691 -9.326704 0.327047 -6.942508 -21.074887 -13.662840 -2.147873 23.247933 -23.554990 25.920268 4.045100 -9.770700 8.064500 -7.845044 -6.177218 2.430895 -82.224359 15.943070 1.656055 9.959524 -11.471408 -1.575316 -0.086722 1.839065 25.795577 17.153647 -11.441875 -4.213200 -7.125000 0.000000 0.000000 -6.396000 16.313000 4.369600 14.641006 6.968766 1.880519 81.299921 -14.239916 -3.331245 -12.797571 17.070649 -2.582757 0.283100 2.185094 31.733520 18.961104 -26.640736 -9.817000 7.125000 0.000000 0.000000 49.919800 -51.733700 -10.460300 
0.070985 18.381259 8.794963 -8.020918 0.271121 13.715976 5.863742 4.064807 -2.240937 -15.536894 -36.766564 11.189694 -3.418232 -1.230633 -0.835741 -13.021874 40.609548 -20.143959 0.034600 1.201500 3.303400 -1.936420 -4.179201 -1.046069 23.592634 24.952976 -0.316222 3.395023 -1.593538 5.406539 7.335230 -23.669152 -3.953353 -0.001600 -0.261500 0.718400 3.462773 2.188044 9.026725 7.027425 5.167413 -31.336069 -9.625218 0.235495 -7.058128 -21.344444 -13.695865 -2.732449 23.147782 -23.491227 26.171811 4.011300 -9.723500 8.162700 -8.041317 -6.139782 2.375044 -82.388377 15.719739 1.185056 9.957942 -11.461126 -1.571926 -0.063181 1.835929 26.047204 17.017694 -11.473693 -4.186800 -7.125000 0.000000 0.000000 -6.501000 16.288800 4.445700 14.533891 6.988428 1.893225 81.007363 -14.018964 -3.068106 -12.772669 17.053679 -2.575280 0.283490 2.187233 31.714705 19.003005 -26.745840 -9.872100 7.125000 0.000000 0.000000 50.047200 -51.803100 -10.601100 
0.070460 18.380944 8.794648 -8.132130 0.328738 13.648030 5.965838 4.093348 -2.208060 -15.538022 -36.784133 11.220747 -3.421457 -1.244335 -0.823644 -13.016900 40.582348 -20.142513 0.034400 1.196700 3.290300 -1.819079 -4.182944 -0.972452 23.591692 24.985974 -0.300030 3.394720 -1.591099 5.395325 7.347846 -23.703497 -3.973631 -0.000100 -0.054000 0.148300 3.038733 2.145429 8.840102 8.199853 5.363556 -30.692218 -9.880980 0.140395 -7.171288 -21.425329 -13.714551 -3.277471 22.797791 -23.323714 26.192138 3.916200 -9.660900 8.164400 -8.250655 -6.113845 2.315122 -82.576176 15.462792 0.747812 9.956995 -11.445025 -1.567614 -0.060729 1.835113 26.242110 17.013594 -11.406943 -4.164800 -7.125000 0.000000 0.000000 -6.500700 16.360800 4.435200 14.410351 6.999630 1.899940 80.703663 -13.776771 -2.839700 -12.732853 17.021724 -2.562449 0.282516 2.185726 31.805762 19.048879 -26.731782 -9.892500 7.125000 0.000000 0.000000 50.070700 -51.781600 -10.577700 
0.069305 18.380524 8.794858 -8.249212 0.366976 13.536727 6.063944 4.133286 -2.148446 -15.531778 -36.779905 11.271701 -3.425081 -1.269025 -0.834667 -13.031749 40.590849 -20.116410 0.032600 1.166400 3.206600 -1.703407 -4.190565 -0.875725 23.603528 25.001751 -0.268230 3.393210 -1.586284 5.390284 7.350874 -23.706571 -3.978543 -0.001100 0.217300 -0.596900 2.624576 2.089997 8.592110 9.384003 5.518783 -29.775021 -10.155358 0.029974 -7.400581 -21.755479 -13.793236 -4.114805 22.808716 -23.306395 26.615732 3.895500 -9.611200 8.336500 -8.459609 -6.062251 2.239605 -82.720638 15.185448 0.385307 9.958697 -11.439154 -1.565890 -0.068623 1.841027 26.337660 17.094100 -11.369342 -4.176000 -7.125000 0.000000 0.000000 -6.435900 16.391700 4.386100 14.331122 7.009336 1.894198 80.378616 -13.498336 -2.553989 -12.687277 16.979648 -2.544980 0.281997 2.182479 31.848100 19.009150 -26.721287 -9.867100 7.125000 0.000000 0.000000 50.026400 -51.778400 -10.558800 
0.064264 18.383779 8.802314 -8.164051 0.350208 13.558583 6.107036 4.175174 -2.083509 -15.660820 -36.908374 11.255825 -3.430379 -1.280694 -0.832821 -13.036217 40.614127 -20.261564 0.035100 1.209900 3.326600 -1.628572 -4.180833 -0.807659 23.394852 25.089588 -0.304347 3.397465 -1.559146 5.321944 7.394937 -23.803049 -3.985666 -0.000000 -0.024200 0.066500 2.143310 1.994562 8.103209 10.108414 5.498737 -28.874814 -10.149507 -0.060203 -7.464635 -21.804231 -13.907210 -5.035361 22.603611 -23.258096 27.005202 3.794100 -9.554800 8.478700 -8.650016 -6.042921 2.171199 -82.813465 14.861810 0.074362 9.980860 -11.443269 -1.567626 -0.079321 1.846429 26.336089 17.183560 -11.328056 -4.188100 -7.125000 0.000000 0.000000 -6.365200 16.425800 4.332600 14.324062 7.016631 1.887440 79.963750 -13.091267 -2.002237 -12.562355 16.837309 -2.509375 0.284407 2.190056 31.310101 18.946867 -27.004220 -9.917900 7.125000 0.000000 0.000000 50.228600 -52.008600 -10.956500 
